<mxfile host="65bd71144e">
    <diagram id="ServerSetupArchitecture" name="Server Architecture">
        <mxGraphModel dx="1199" dy="679" grid="1" gridSize="10" guides="1" tooltips="1" connect="1" arrows="1" fold="1" page="1" pageScale="1" pageWidth="1400" pageHeight="1000" math="0" shadow="0">
            <root>
                <mxCell id="0"/>
                <mxCell id="1" parent="0"/>
                <mxCell id="2" value="" style="rounded=1;whiteSpace=wrap;html=1;fillColor=#e1f5fe;strokeColor=#01579b;strokeWidth=2;" parent="1" vertex="1">
                    <mxGeometry x="50" y="50" width="520" height="400" as="geometry"/>
                </mxCell>
                <mxCell id="3" value="Proxmox Server" style="text;html=1;strokeColor=none;fillColor=none;align=center;verticalAlign=middle;whiteSpace=wrap;rounded=0;fontSize=16;fontStyle=1;" parent="1" vertex="1">
                    <mxGeometry x="60" y="60" width="120" height="30" as="geometry"/>
                </mxCell>
                <mxCell id="4" value="" style="rounded=1;whiteSpace=wrap;html=1;fillColor=#f3e5f5;strokeColor=#7b1fa2;strokeWidth=2;" parent="1" vertex="1">
                    <mxGeometry x="70" y="120" width="200" height="160" as="geometry"/>
                </mxCell>
                <mxCell id="5" value="ZFS Pool: storage" style="text;html=1;strokeColor=none;fillColor=none;align=center;verticalAlign=middle;whiteSpace=wrap;rounded=0;fontSize=12;fontStyle=1;" parent="1" vertex="1">
                    <mxGeometry x="80" y="130" width="120" height="20" as="geometry"/>
                </mxCell>
                <mxCell id="6" value="" style="image;aspect=fixed;html=1;points=[];align=center;fontSize=12;image=img/lib/azure2/general/SSD.svg;" parent="1" vertex="1">
                    <mxGeometry x="90" y="160" width="40" height="36" as="geometry"/>
                </mxCell>
                <mxCell id="7" value="" style="image;aspect=fixed;html=1;points=[];align=center;fontSize=12;image=img/lib/azure2/general/SSD.svg;" parent="1" vertex="1">
                    <mxGeometry x="150" y="160" width="40" height="36" as="geometry"/>
                </mxCell>
                <mxCell id="8" value="4TB SSD" style="text;html=1;strokeColor=none;fillColor=none;align=center;verticalAlign=middle;whiteSpace=wrap;rounded=0;fontSize=10;" parent="1" vertex="1">
                    <mxGeometry x="80" y="200" width="60" height="15" as="geometry"/>
                </mxCell>
                <mxCell id="9" value="4TB SSD" style="text;html=1;strokeColor=none;fillColor=none;align=center;verticalAlign=middle;whiteSpace=wrap;rounded=0;fontSize=10;" parent="1" vertex="1">
                    <mxGeometry x="140" y="200" width="60" height="15" as="geometry"/>
                </mxCell>
                <mxCell id="10" value="RAID 1 Mirror" style="text;html=1;strokeColor=none;fillColor=none;align=center;verticalAlign=middle;whiteSpace=wrap;rounded=0;fontSize=10;fontStyle=2;" parent="1" vertex="1">
                    <mxGeometry x="100" y="220" width="80" height="15" as="geometry"/>
                </mxCell>
                <mxCell id="11" value="" style="strokeWidth=2;html=1;shape=mxgraph.flowchart.database;whiteSpace=wrap;fillColor=#fff3e0;strokeColor=#e65100;" parent="1" vertex="1">
                    <mxGeometry x="210" y="160" width="40" height="40" as="geometry"/>
                </mxCell>
                <mxCell id="12" value="Dataset: smb" style="text;html=1;strokeColor=none;fillColor=none;align=center;verticalAlign=middle;whiteSpace=wrap;rounded=0;fontSize=10;" parent="1" vertex="1">
                    <mxGeometry x="195" y="205" width="70" height="15" as="geometry"/>
                </mxCell>
                <mxCell id="13" value="Sanoid" style="rounded=1;whiteSpace=wrap;html=1;fillColor=#c8e6c9;strokeColor=#388e3c;fontSize=10;" parent="1" vertex="1">
                    <mxGeometry x="80" y="250" width="50" height="20" as="geometry"/>
                </mxCell>
                <mxCell id="14" value="Snapshots" style="text;html=1;strokeColor=none;fillColor=none;align=center;verticalAlign=middle;whiteSpace=wrap;rounded=0;fontSize=9;" parent="1" vertex="1">
                    <mxGeometry x="140" y="250" width="50" height="15" as="geometry"/>
                </mxCell>
                <mxCell id="15" value="" style="rounded=1;whiteSpace=wrap;html=1;fillColor=#e8f5e8;strokeColor=#4caf50;strokeWidth=2;" parent="1" vertex="1">
                    <mxGeometry x="300" y="120" width="250" height="200" as="geometry"/>
                </mxCell>
                <mxCell id="16" value="Services VM" style="text;html=1;strokeColor=none;fillColor=none;align=center;verticalAlign=middle;whiteSpace=wrap;rounded=0;fontSize=14;fontStyle=1;" parent="1" vertex="1">
                    <mxGeometry x="310" y="130" width="80" height="20" as="geometry"/>
                </mxCell>
                <mxCell id="17" value="Samba" style="rounded=1;whiteSpace=wrap;html=1;fillColor=#bbdefb;strokeColor=#1976d2;fontSize=11;" parent="1" vertex="1">
                    <mxGeometry x="320" y="160" width="60" height="30" as="geometry"/>
                </mxCell>
                <mxCell id="18" value="Immich" style="rounded=1;whiteSpace=wrap;html=1;fillColor=#bbdefb;strokeColor=#1976d2;fontSize=11;" parent="1" vertex="1">
                    <mxGeometry x="340" y="212.5" width="60" height="30" as="geometry"/>
                </mxCell>
                <mxCell id="19" value="Syncthing" style="rounded=1;whiteSpace=wrap;html=1;fillColor=#bbdefb;strokeColor=#1976d2;fontSize=11;" parent="1" vertex="1">
                    <mxGeometry x="425" y="165" width="60" height="30" as="geometry"/>
                </mxCell>
                <mxCell id="20" value="Tailscale" style="rounded=1;whiteSpace=wrap;html=1;fillColor=#f8bbd9;strokeColor=#ad1457;fontSize=11;" parent="1" vertex="1">
                    <mxGeometry x="330" y="275" width="80" height="30" as="geometry"/>
                </mxCell>
                <mxCell id="49" value="" style="rounded=1;whiteSpace=wrap;html=1;fillColor=#f3e5f5;strokeColor=#7b1fa2;strokeWidth=2;" parent="1" vertex="1">
                    <mxGeometry x="300" y="350" width="230" height="100" as="geometry"/>
                </mxCell>
                <mxCell id="50" value="CodeMachine2 VM" style="text;html=1;strokeColor=none;fillColor=none;align=center;verticalAlign=middle;whiteSpace=wrap;rounded=0;fontSize=14;fontStyle=1;" parent="1" vertex="1">
                    <mxGeometry x="310" y="360" width="120" height="20" as="geometry"/>
                </mxCell>
                <mxCell id="52" value="Tailscale" style="rounded=1;whiteSpace=wrap;html=1;fillColor=#f8bbd9;strokeColor=#ad1457;fontSize=11;" parent="1" vertex="1">
                    <mxGeometry x="365" y="400" width="60" height="25" as="geometry"/>
                </mxCell>
                <mxCell id="53" value="Tailscale" style="rounded=1;whiteSpace=wrap;html=1;fillColor=#f8bbd9;strokeColor=#ad1457;fontSize=11;" parent="1" vertex="1">
                    <mxGeometry x="90" y="380" width="80" height="25" as="geometry"/>
                </mxCell>
                <mxCell id="22" value="" style="endArrow=classic;html=1;rounded=0;exitX=1;exitY=0.25;exitDx=0;exitDy=0;exitPerimeter=0;entryX=0;entryY=0.5;entryDx=0;entryDy=0;" parent="1" source="11" target="17" edge="1">
                    <mxGeometry width="50" height="50" relative="1" as="geometry">
                        <mxPoint x="250" y="170" as="sourcePoint"/>
                        <mxPoint x="320" y="175" as="targetPoint"/>
                    </mxGeometry>
                </mxCell>
                <mxCell id="23" value="virtiofs" style="edgeLabel;html=1;align=center;verticalAlign=middle;resizable=0;points=[];fontSize=9;" parent="22" vertex="1" connectable="0">
                    <mxGeometry x="-0.1" y="-1" relative="1" as="geometry">
                        <mxPoint x="5" y="-8" as="offset"/>
                    </mxGeometry>
                </mxCell>
                <mxCell id="24" value="" style="rounded=1;whiteSpace=wrap;html=1;fillColor=#fce4ec;strokeColor=#c2185b;strokeWidth=2;" parent="1" vertex="1">
                    <mxGeometry x="580" y="50" width="240" height="200" as="geometry"/>
                </mxCell>
                <mxCell id="25" value="Backup Location (Separate)" style="text;html=1;strokeColor=none;fillColor=none;align=center;verticalAlign=middle;whiteSpace=wrap;rounded=0;fontSize=14;fontStyle=1;" parent="1" vertex="1">
                    <mxGeometry x="590" y="60" width="180" height="20" as="geometry"/>
                </mxCell>
                <mxCell id="26" value="" style="rounded=1;whiteSpace=wrap;html=1;fillColor=#ffebee;strokeColor=#d32f2f;strokeWidth=1;" parent="1" vertex="1">
                    <mxGeometry x="600" y="90" width="80" height="60" as="geometry"/>
                </mxCell>
                <mxCell id="27" value="" style="rounded=1;whiteSpace=wrap;html=1;fillColor=#ffebee;strokeColor=#d32f2f;strokeWidth=1;" parent="1" vertex="1">
                    <mxGeometry x="700" y="90" width="80" height="60" as="geometry"/>
                </mxCell>
                <mxCell id="28" value="" style="aspect=fixed;html=1;align=center;fontSize=12;image=img/lib/clip_art/computers/Harddrive_128x128.png;shape=image;labelBackgroundColor=default;verticalAlign=top;verticalLabelPosition=bottom;" parent="1" vertex="1">
                    <mxGeometry x="615" y="90" width="50" height="50" as="geometry"/>
                </mxCell>
                <mxCell id="29" value="" style="aspect=fixed;html=1;align=center;fontSize=12;image=img/lib/clip_art/computers/Harddrive_128x128.png;shape=image;labelBackgroundColor=default;verticalAlign=top;verticalLabelPosition=bottom;" parent="1" vertex="1">
                    <mxGeometry x="715" y="90" width="50" height="50" as="geometry"/>
                </mxCell>
                <mxCell id="30" value="wdred" style="text;html=1;strokeColor=none;fillColor=none;align=center;verticalAlign=middle;whiteSpace=wrap;rounded=0;fontSize=10;fontStyle=1;" parent="1" vertex="1">
                    <mxGeometry x="610" y="135" width="40" height="15" as="geometry"/>
                </mxCell>
                <mxCell id="31" value="sgblack" style="text;html=1;strokeColor=none;fillColor=none;align=center;verticalAlign=middle;whiteSpace=wrap;rounded=0;fontSize=10;fontStyle=1;" parent="1" vertex="1">
                    <mxGeometry x="710" y="135" width="40" height="15" as="geometry"/>
                </mxCell>
                <mxCell id="56" value="Backup Server" style="rounded=1;whiteSpace=wrap;html=1;fillColor=#e8eaf6;strokeColor=#3f51b5;fontSize=10;" parent="1" vertex="1">
                    <mxGeometry x="615" y="185" width="80" height="20" as="geometry"/>
                </mxCell>
                <mxCell id="57" value="Tailscale" style="rounded=1;whiteSpace=wrap;html=1;fillColor=#f8bbd9;strokeColor=#ad1457;fontSize=10;" parent="1" vertex="1">
                    <mxGeometry x="720" y="170" width="50" height="20" as="geometry"/>
                </mxCell>
                <mxCell id="32" value="" style="endArrow=classic;html=1;rounded=0;exitX=1;exitY=0.25;exitDx=0;exitDy=0;entryX=0.036;entryY=0.372;entryDx=0;entryDy=0;entryPerimeter=0;" parent="1" source="4" target="27" edge="1">
                    <mxGeometry width="50" height="50" relative="1" as="geometry">
                        <mxPoint x="300" y="160" as="sourcePoint"/>
                        <mxPoint x="580" y="120" as="targetPoint"/>
                        <Array as="points">
                            <mxPoint x="290" y="70"/>
                            <mxPoint x="470" y="60"/>
                        </Array>
                    </mxGeometry>
                </mxCell>
                <mxCell id="33" value="syncoid" style="edgeLabel;html=1;align=center;verticalAlign=middle;resizable=0;points=[];fontSize=9;" parent="32" vertex="1" connectable="0">
                    <mxGeometry x="-0.1" y="-1" relative="1" as="geometry">
                        <mxPoint x="10" y="-8" as="offset"/>
                    </mxGeometry>
                </mxCell>
                <mxCell id="58" value="" style="endArrow=classic;html=1;rounded=0;entryX=0;entryY=0.5;entryDx=0;entryDy=0;" parent="1" target="26" edge="1">
                    <mxGeometry width="50" height="50" relative="1" as="geometry">
                        <mxPoint x="270" y="160" as="sourcePoint"/>
                        <mxPoint x="700" y="120" as="targetPoint"/>
                        <Array as="points">
                            <mxPoint x="320" y="100"/>
                            <mxPoint x="480" y="80"/>
                        </Array>
                    </mxGeometry>
                </mxCell>
                <mxCell id="59" value="syncoid" style="edgeLabel;html=1;align=center;verticalAlign=middle;resizable=0;points=[];fontSize=9;" parent="58" vertex="1" connectable="0">
                    <mxGeometry x="-0.1" y="-1" relative="1" as="geometry">
                        <mxPoint x="10" y="-8" as="offset"/>
                    </mxGeometry>
                </mxCell>
                <mxCell id="34" value="" style="rounded=1;whiteSpace=wrap;html=1;fillColor=#fff8e1;strokeColor=#ff8f00;strokeWidth=2;" parent="1" vertex="1">
                    <mxGeometry x="880" y="50" width="150" height="100" as="geometry"/>
                </mxCell>
                <mxCell id="35" value="External Drive (Work)" style="text;html=1;strokeColor=none;fillColor=none;align=center;verticalAlign=middle;whiteSpace=wrap;rounded=0;fontSize=12;fontStyle=1;" parent="1" vertex="1">
                    <mxGeometry x="890" y="60" width="130" height="20" as="geometry"/>
                </mxCell>
                <mxCell id="36" value="" style="aspect=fixed;html=1;align=center;fontSize=12;image=img/lib/clip_art/computers/Harddrive_128x128.png;shape=image;labelBackgroundColor=default;verticalAlign=top;verticalLabelPosition=bottom;" parent="1" vertex="1">
                    <mxGeometry x="927.5" y="80" width="55" height="55" as="geometry"/>
                </mxCell>
                <mxCell id="37" value="Monthly ZFS Snapshots" style="text;html=1;strokeColor=none;fillColor=none;align=center;verticalAlign=middle;whiteSpace=wrap;rounded=0;fontSize=9;fontStyle=2;" parent="1" vertex="1">
                    <mxGeometry x="890" y="130" width="130" height="15" as="geometry"/>
                </mxCell>
                <mxCell id="60" value="" style="endArrow=classic;html=1;rounded=0;exitX=1;exitY=0.5;exitDx=0;exitDy=0;entryX=0;entryY=0.5;entryDx=0;entryDy=0;dashed=1;" parent="1" source="4" target="34" edge="1">
                    <mxGeometry width="50" height="50" relative="1" as="geometry">
                        <mxPoint x="280" y="200" as="sourcePoint"/>
                        <mxPoint x="880" y="100" as="targetPoint"/>
                        <Array as="points">
                            <mxPoint x="400" y="200"/>
                            <mxPoint x="400" y="30"/>
                            <mxPoint x="850" y="30"/>
                            <mxPoint x="850" y="100"/>
                        </Array>
                    </mxGeometry>
                </mxCell>
                <mxCell id="61" value="Monthly" style="edgeLabel;html=1;align=center;verticalAlign=middle;resizable=0;points=[];fontSize=9;" parent="60" vertex="1" connectable="0">
                    <mxGeometry x="-0.1" y="-1" relative="1" as="geometry">
                        <mxPoint x="10" y="-5" as="offset"/>
                    </mxGeometry>
                </mxCell>
                <mxCell id="38" value="" style="ellipse;shape=cloud;whiteSpace=wrap;html=1;fillColor=#e1f5fe;strokeColor=#01579b;" parent="1" vertex="1">
                    <mxGeometry x="200" y="500" width="300" height="100" as="geometry"/>
                </mxCell>
                <mxCell id="39" value="Tailscale VPN Network" style="text;html=1;strokeColor=none;fillColor=none;align=center;verticalAlign=middle;whiteSpace=wrap;rounded=0;fontSize=14;fontStyle=1;" parent="1" vertex="1">
                    <mxGeometry x="275" y="535" width="150" height="30" as="geometry"/>
                </mxCell>
                <mxCell id="40" value="" style="endArrow=classic;html=1;rounded=0;exitX=0.5;exitY=1;exitDx=0;exitDy=0;entryX=0.3;entryY=0;entryDx=0;entryDy=0;entryPerimeter=0;" parent="1" source="20" target="38" edge="1">
                    <mxGeometry width="50" height="50" relative="1" as="geometry">
                        <mxPoint x="440" y="240" as="sourcePoint"/>
                        <mxPoint x="290" y="500" as="targetPoint"/>
                        <Array as="points">
                            <mxPoint x="290" y="340"/>
                        </Array>
                    </mxGeometry>
                </mxCell>
                <mxCell id="62" value="" style="endArrow=classic;html=1;rounded=0;exitX=0.5;exitY=1;exitDx=0;exitDy=0;" parent="1" source="52" target="38" edge="1">
                    <mxGeometry width="50" height="50" relative="1" as="geometry">
                        <mxPoint x="510" y="420" as="sourcePoint"/>
                        <mxPoint x="368" y="500" as="targetPoint"/>
                    </mxGeometry>
                </mxCell>
                <mxCell id="63" value="" style="endArrow=classic;html=1;rounded=0;exitX=0.5;exitY=1;exitDx=0;exitDy=0;" parent="1" source="53" target="38" edge="1">
                    <mxGeometry width="50" height="50" relative="1" as="geometry">
                        <mxPoint x="490" y="130" as="sourcePoint"/>
                        <mxPoint x="410" y="500" as="targetPoint"/>
                        <Array as="points">
                            <mxPoint x="130" y="460"/>
                        </Array>
                    </mxGeometry>
                </mxCell>
                <mxCell id="64" value="" style="endArrow=classic;html=1;rounded=0;exitX=0.5;exitY=1;exitDx=0;exitDy=0;entryX=0.9;entryY=0.1;entryDx=0;entryDy=0;entryPerimeter=0;" parent="1" source="57" target="38" edge="1">
                    <mxGeometry width="50" height="50" relative="1" as="geometry">
                        <mxPoint x="745" y="200" as="sourcePoint"/>
                        <mxPoint x="470" y="510" as="targetPoint"/>
                        <Array as="points">
                            <mxPoint x="745" y="480"/>
                            <mxPoint x="470" y="480"/>
                        </Array>
                    </mxGeometry>
                </mxCell>
                <mxCell id="41" value="" style="sketch=0;pointerEvents=1;shadow=0;dashed=0;html=1;strokeColor=none;fillColor=#505050;labelPosition=center;verticalLabelPosition=bottom;verticalAlign=top;outlineConnect=0;align=center;shape=mxgraph.office.devices.cell_phone_iphone_proportional;" parent="1" vertex="1">
                    <mxGeometry x="100" y="650" width="25" height="40" as="geometry"/>
                </mxCell>
                <mxCell id="42" value="" style="image;html=1;image=img/lib/clip_art/computers/Laptop_128x128.png" parent="1" vertex="1">
                    <mxGeometry x="200" y="650" width="60" height="40" as="geometry"/>
                </mxCell>
                <mxCell id="43" value="Remote Devices" style="text;html=1;strokeColor=none;fillColor=none;align=center;verticalAlign=middle;whiteSpace=wrap;rounded=0;fontSize=12;fontStyle=1;" parent="1" vertex="1">
                    <mxGeometry x="140" y="700" width="100" height="20" as="geometry"/>
                </mxCell>
                <mxCell id="44" value="" style="endArrow=classic;html=1;rounded=0;entryX=0.196;entryY=0.843;entryDx=0;entryDy=0;entryPerimeter=0;" parent="1" target="38" edge="1">
                    <mxGeometry width="50" height="50" relative="1" as="geometry">
                        <mxPoint x="120" y="650" as="sourcePoint"/>
                        <mxPoint x="200" y="570" as="targetPoint"/>
                    </mxGeometry>
                </mxCell>
                <mxCell id="45" value="" style="endArrow=classic;html=1;rounded=0;entryX=0.433;entryY=0.923;entryDx=0;entryDy=0;entryPerimeter=0;exitX=0.5;exitY=0;exitDx=0;exitDy=0;" parent="1" source="42" target="38" edge="1">
                    <mxGeometry width="50" height="50" relative="1" as="geometry">
                        <mxPoint x="230" y="650" as="sourcePoint"/>
                        <mxPoint x="300" y="570" as="targetPoint"/>
                    </mxGeometry>
                </mxCell>
                <mxCell id="65" value="Ansible" style="rounded=1;whiteSpace=wrap;html=1;fillColor=#ffecb3;strokeColor=#ff8f00;fontSize=11;fontStyle=1;" parent="1" vertex="1">
                    <mxGeometry x="82.5" y="520" width="60" height="25" as="geometry"/>
                </mxCell>
                <mxCell id="66" value="" style="endArrow=classic;html=1;rounded=0;exitX=1;exitY=0.25;exitDx=0;exitDy=0;entryX=0;entryY=0.75;entryDx=0;entryDy=0;dashed=1;" parent="1" source="65" target="15" edge="1">
                    <mxGeometry width="50" height="50" relative="1" as="geometry">
                        <mxPoint x="150" y="490" as="sourcePoint"/>
                        <mxPoint x="300" y="270" as="targetPoint"/>
                        <Array as="points">
                            <mxPoint x="200" y="486"/>
                            <mxPoint x="200" y="320"/>
                        </Array>
                    </mxGeometry>
                </mxCell>
                <mxCell id="67" value="Manages" style="edgeLabel;html=1;align=center;verticalAlign=middle;resizable=0;points=[];fontSize=9;" parent="66" vertex="1" connectable="0">
                    <mxGeometry x="-0.1" y="-1" relative="1" as="geometry">
                        <mxPoint x="10" y="-8" as="offset"/>
                    </mxGeometry>
                </mxCell>
                <mxCell id="70" value="Architecture Features:" style="text;html=1;strokeColor=none;fillColor=none;align=left;verticalAlign=middle;whiteSpace=wrap;rounded=0;fontSize=12;fontStyle=1;" parent="1" vertex="1">
                    <mxGeometry x="880" y="200" width="140" height="20" as="geometry"/>
                </mxCell>
                <mxCell id="71" value="• ZFS snapshots via Sanoid&#xa;• Independent backup targets via Syncoid&#xa;• Two VMs: Services + CodeMachine2&#xa;• Shared storage via virtiofs&#xa;• Remote access via Tailscale (everywhere)&#xa;• Monthly external drive snapshots&#xa;• VM automation via Ansible" style="text;html=1;strokeColor=none;fillColor=none;align=left;verticalAlign=top;whiteSpace=wrap;rounded=0;fontSize=10;" parent="1" vertex="1">
                    <mxGeometry x="880" y="230" width="220" height="120" as="geometry"/>
                </mxCell>
            </root>
        </mxGraphModel>
    </diagram>
</mxfile>